<?xml version="1.0" encoding="UTF-8" standalone="no"?>
<!DOCTYPE svg PUBLIC "-//W3C//DTD SVG 1.1//EN" "http://www.w3.org/Graphics/SVG/1.1/DTD/svg11.dtd">
<svg width="100%" height="100%" viewBox="0 0 11 4" version="1.1" xmlns="http://www.w3.org/2000/svg" xmlns:xlink="http://www.w3.org/1999/xlink" xml:space="preserve" xmlns:serif="http://www.serif.com/" style="fill-rule:evenodd;clip-rule:evenodd;stroke-linejoin:round;stroke-miterlimit:2;">
    <rect id="Artboard1" x="0" y="0" width="11" height="3.765" style="fill:none;"/>
    <clipPath id="_clip1">
        <rect id="Artboard11" serif:id="Artboard1" x="0" y="0" width="11" height="3.765"/>
    </clipPath>
    <g clip-path="url(#_clip1)">
        <g transform="matrix(1.06137,0,0,1.06137,0,-8.78894e-06)">
            <path d="M1.596,0.425C1.941,0.648 2.01,0.969 2.026,1.309C1.7,0.818 1.437,0.544 0.814,0.635C0.408,0.694 0.044,1.084 0.486,1.422C0.393,1.412 0.286,1.356 0.235,1.285C-0.044,0.895 0.367,0.428 0.743,0.303C1.057,0.199 1.322,0.248 1.596,0.425ZM6.773,0.425C7.118,0.648 7.187,0.969 7.203,1.309C6.877,0.818 6.614,0.544 5.991,0.635C5.585,0.694 5.221,1.084 5.663,1.422C5.57,1.412 5.463,1.356 5.412,1.285C5.133,0.895 5.544,0.428 5.921,0.303C6.234,0.199 6.499,0.248 6.773,0.425ZM6.247,0.773C7.334,1.285 6.981,2.34 6.144,2.519C6.939,2.091 7.037,1.362 6.247,0.773ZM6.136,2.361C5.899,2.482 5.576,2.571 5.187,2.639L5.187,2.638C3.45,2.584 2.927,0.391 1.464,0.029C1.09,-0.03 0.744,-0.009 0.459,0.191C-0.151,0.619 0.033,1.439 0.434,1.478C0.696,1.504 0.767,1.245 0.629,1.162C0.609,1.28 0.524,1.322 0.488,1.313C0.326,1.272 0.264,0.88 0.71,0.858C1.109,0.839 1.4,1.204 1.425,1.493C1.429,1.536 1.429,1.581 1.425,1.627C1.4,1.995 1.292,2.19 0.959,2.361C0.72,2.483 0.395,2.573 0.002,2.64C0.002,2.94 0,3.248 0,3.547L10.364,3.547L10.364,2.638C8.627,2.584 8.104,0.391 6.641,0.029C6.267,-0.03 5.921,-0.009 5.636,0.191C5.026,0.619 5.21,1.439 5.611,1.478C5.873,1.504 5.945,1.245 5.806,1.162C5.786,1.28 5.701,1.322 5.665,1.313C5.503,1.272 5.441,0.88 5.888,0.858C6.286,0.839 6.577,1.204 6.602,1.493C6.606,1.536 6.606,1.581 6.603,1.627C6.577,1.995 6.469,2.19 6.136,2.361ZM1.07,0.773C2.157,1.285 1.804,2.34 0.967,2.519C1.762,2.091 1.86,1.362 1.07,0.773Z" style="fill:rgb(0,107,255);"/>
        </g>
    </g>
</svg>
